<mxfile host="app.diagrams.net" modified="2021-11-15T08:40:05.642Z" agent="5.0 (X11; Linux x86_64) AppleWebKit/537.36 (KHTML, like Gecko) Chrome/95.0.4638.69 Safari/537.36" etag="GVHFP0CMMPklRZAO01zG" version="15.3.8" type="github" pages="3">
  <diagram id="hZPbQjz2teNgzwlmYUkK" name="sys_manager_00">
    <mxGraphModel dx="711" dy="381" grid="1" gridSize="10" guides="1" tooltips="1" connect="1" arrows="1" fold="1" page="1" pageScale="1" pageWidth="1920" pageHeight="1200" math="0" shadow="0">
      <root>
        <mxCell id="0" />
        <mxCell id="1" parent="0" />
        <mxCell id="6OKLoz5QRYWBKXCcHKRh-4" value="" style="edgeStyle=orthogonalEdgeStyle;rounded=0;orthogonalLoop=1;jettySize=auto;html=1;" edge="1" parent="1">
          <mxGeometry relative="1" as="geometry">
            <mxPoint x="480" y="190" as="sourcePoint" />
            <mxPoint x="540" y="70" as="targetPoint" />
            <Array as="points">
              <mxPoint x="480" y="190" />
              <mxPoint x="520" y="190" />
              <mxPoint x="520" y="70" />
            </Array>
          </mxGeometry>
        </mxCell>
        <mxCell id="6OKLoz5QRYWBKXCcHKRh-17" value="" style="rounded=0;orthogonalLoop=1;jettySize=auto;html=1;edgeStyle=orthogonalEdgeStyle;elbow=vertical;" edge="1" parent="1">
          <mxGeometry relative="1" as="geometry">
            <mxPoint x="480" y="190" as="sourcePoint" />
            <mxPoint x="540" y="280" as="targetPoint" />
            <Array as="points">
              <mxPoint x="520" y="190" />
              <mxPoint x="520" y="280" />
            </Array>
          </mxGeometry>
        </mxCell>
        <mxCell id="6OKLoz5QRYWBKXCcHKRh-18" value="" style="edgeStyle=orthogonalEdgeStyle;rounded=0;orthogonalLoop=1;jettySize=auto;html=1;" edge="1" parent="1">
          <mxGeometry relative="1" as="geometry">
            <mxPoint x="480" y="190" as="sourcePoint" />
            <mxPoint x="540" y="140" as="targetPoint" />
            <Array as="points">
              <mxPoint x="520" y="190" />
              <mxPoint x="520" y="140" />
            </Array>
          </mxGeometry>
        </mxCell>
        <mxCell id="epeRU77rmkTxnslmgX97-5" value="" style="edgeStyle=orthogonalEdgeStyle;rounded=0;orthogonalLoop=1;jettySize=auto;html=1;" edge="1" parent="1">
          <mxGeometry relative="1" as="geometry">
            <mxPoint x="480" y="190" as="sourcePoint" />
            <mxPoint x="540" y="210" as="targetPoint" />
            <Array as="points">
              <mxPoint x="520" y="190" />
              <mxPoint x="520" y="210" />
            </Array>
          </mxGeometry>
        </mxCell>
        <mxCell id="6OKLoz5QRYWBKXCcHKRh-1" value="系统管理员" style="shape=umlActor;verticalLabelPosition=bottom;verticalAlign=top;html=1;" vertex="1" parent="1">
          <mxGeometry x="440" y="160" width="30" height="60" as="geometry" />
        </mxCell>
        <mxCell id="6OKLoz5QRYWBKXCcHKRh-3" value="" style="ellipse;whiteSpace=wrap;html=1;verticalAlign=top;" vertex="1" parent="1">
          <mxGeometry x="550" y="40" width="180" height="60" as="geometry" />
        </mxCell>
        <mxCell id="6OKLoz5QRYWBKXCcHKRh-7" value="系统初始化" style="text;html=1;align=center;verticalAlign=middle;resizable=0;points=[];autosize=1;strokeColor=none;fillColor=none;" vertex="1" parent="1">
          <mxGeometry x="600" y="60" width="80" height="20" as="geometry" />
        </mxCell>
        <mxCell id="6OKLoz5QRYWBKXCcHKRh-10" value="" style="ellipse;whiteSpace=wrap;html=1;verticalAlign=top;" vertex="1" parent="1">
          <mxGeometry x="550" y="110" width="180" height="60" as="geometry" />
        </mxCell>
        <mxCell id="6OKLoz5QRYWBKXCcHKRh-11" value="登录系统" style="text;html=1;align=center;verticalAlign=middle;resizable=0;points=[];autosize=1;strokeColor=none;fillColor=none;" vertex="1" parent="1">
          <mxGeometry x="610" y="130" width="60" height="20" as="geometry" />
        </mxCell>
        <mxCell id="6OKLoz5QRYWBKXCcHKRh-12" value="" style="ellipse;whiteSpace=wrap;html=1;verticalAlign=top;" vertex="1" parent="1">
          <mxGeometry x="550" y="250" width="180" height="60" as="geometry" />
        </mxCell>
        <mxCell id="6OKLoz5QRYWBKXCcHKRh-13" value="系统管理" style="text;html=1;align=center;verticalAlign=middle;resizable=0;points=[];autosize=1;strokeColor=none;fillColor=none;" vertex="1" parent="1">
          <mxGeometry x="610" y="280" width="60" height="20" as="geometry" />
        </mxCell>
        <mxCell id="epeRU77rmkTxnslmgX97-1" value="" style="ellipse;whiteSpace=wrap;html=1;verticalAlign=top;" vertex="1" parent="1">
          <mxGeometry x="550" y="180" width="180" height="60" as="geometry" />
        </mxCell>
        <mxCell id="epeRU77rmkTxnslmgX97-2" value="修改密码" style="text;html=1;align=center;verticalAlign=middle;resizable=0;points=[];autosize=1;strokeColor=none;fillColor=none;" vertex="1" parent="1">
          <mxGeometry x="610" y="200" width="60" height="20" as="geometry" />
        </mxCell>
      </root>
    </mxGraphModel>
  </diagram>
  <diagram id="WIw9e9frKtVNSH9nVA7h" name="sys_manager_10">
    <mxGraphModel dx="711" dy="381" grid="1" gridSize="10" guides="1" tooltips="1" connect="1" arrows="1" fold="1" page="1" pageScale="1" pageWidth="1920" pageHeight="1200" math="0" shadow="0">
      <root>
        <mxCell id="LGRGH655CSchLwy6N6ty-0" />
        <mxCell id="LGRGH655CSchLwy6N6ty-1" parent="LGRGH655CSchLwy6N6ty-0" />
        <mxCell id="LGRGH655CSchLwy6N6ty-4" value="" style="edgeStyle=orthogonalEdgeStyle;rounded=0;orthogonalLoop=1;jettySize=auto;html=1;" edge="1" parent="LGRGH655CSchLwy6N6ty-1" source="LGRGH655CSchLwy6N6ty-5">
          <mxGeometry relative="1" as="geometry">
            <mxPoint x="540" y="190" as="targetPoint" />
          </mxGeometry>
        </mxCell>
        <mxCell id="LGRGH655CSchLwy6N6ty-5" value="系统管理员" style="shape=umlActor;verticalLabelPosition=bottom;verticalAlign=top;html=1;" vertex="1" parent="LGRGH655CSchLwy6N6ty-1">
          <mxGeometry x="440" y="160" width="30" height="60" as="geometry" />
        </mxCell>
        <mxCell id="LGRGH655CSchLwy6N6ty-8" value="" style="edgeStyle=orthogonalEdgeStyle;rounded=0;orthogonalLoop=1;jettySize=auto;html=1;exitX=1;exitY=0.5;exitDx=0;exitDy=0;" edge="1" parent="LGRGH655CSchLwy6N6ty-1" source="LGRGH655CSchLwy6N6ty-10" target="LGRGH655CSchLwy6N6ty-14">
          <mxGeometry relative="1" as="geometry" />
        </mxCell>
        <mxCell id="LGRGH655CSchLwy6N6ty-9" value="" style="edgeStyle=orthogonalEdgeStyle;rounded=0;orthogonalLoop=1;jettySize=auto;html=1;" edge="1" parent="LGRGH655CSchLwy6N6ty-1" source="LGRGH655CSchLwy6N6ty-10" target="LGRGH655CSchLwy6N6ty-16">
          <mxGeometry relative="1" as="geometry" />
        </mxCell>
        <mxCell id="LGRGH655CSchLwy6N6ty-10" value="" style="ellipse;whiteSpace=wrap;html=1;verticalAlign=top;" vertex="1" parent="LGRGH655CSchLwy6N6ty-1">
          <mxGeometry x="550" y="160" width="180" height="60" as="geometry" />
        </mxCell>
        <mxCell id="LGRGH655CSchLwy6N6ty-11" value="修改密码" style="text;html=1;align=center;verticalAlign=middle;resizable=0;points=[];autosize=1;strokeColor=none;fillColor=none;" vertex="1" parent="LGRGH655CSchLwy6N6ty-1">
          <mxGeometry x="610" y="180" width="60" height="20" as="geometry" />
        </mxCell>
        <mxCell id="LGRGH655CSchLwy6N6ty-14" value="" style="ellipse;whiteSpace=wrap;html=1;verticalAlign=top;" vertex="1" parent="LGRGH655CSchLwy6N6ty-1">
          <mxGeometry x="800" y="120" width="180" height="60" as="geometry" />
        </mxCell>
        <mxCell id="LGRGH655CSchLwy6N6ty-15" value="登录系统后台" style="text;html=1;align=center;verticalAlign=middle;resizable=0;points=[];autosize=1;strokeColor=none;fillColor=none;" vertex="1" parent="LGRGH655CSchLwy6N6ty-1">
          <mxGeometry x="845" y="140" width="90" height="20" as="geometry" />
        </mxCell>
        <mxCell id="LGRGH655CSchLwy6N6ty-16" value="" style="ellipse;whiteSpace=wrap;html=1;verticalAlign=top;" vertex="1" parent="LGRGH655CSchLwy6N6ty-1">
          <mxGeometry x="800" y="190" width="180" height="60" as="geometry" />
        </mxCell>
        <mxCell id="LGRGH655CSchLwy6N6ty-17" value="首次修改密码" style="text;html=1;align=center;verticalAlign=middle;resizable=0;points=[];autosize=1;strokeColor=none;fillColor=none;" vertex="1" parent="LGRGH655CSchLwy6N6ty-1">
          <mxGeometry x="845" y="210" width="90" height="20" as="geometry" />
        </mxCell>
      </root>
    </mxGraphModel>
  </diagram>
  <diagram id="LtYkvaE_vi5jjCfZ22qR" name="sys_manager_11">
    <mxGraphModel dx="1422" dy="761" grid="1" gridSize="10" guides="1" tooltips="1" connect="1" arrows="1" fold="1" page="1" pageScale="1" pageWidth="1920" pageHeight="1200" math="0" shadow="0">
      <root>
        <mxCell id="qFUhUoFra0QCx2b-uVbG-0" />
        <mxCell id="qFUhUoFra0QCx2b-uVbG-1" parent="qFUhUoFra0QCx2b-uVbG-0" />
        <mxCell id="j0zdqZ4gvTMgkpvPAREg-0" value="" style="edgeStyle=orthogonalEdgeStyle;rounded=0;orthogonalLoop=1;jettySize=auto;html=1;" edge="1" parent="qFUhUoFra0QCx2b-uVbG-1" source="j0zdqZ4gvTMgkpvPAREg-3">
          <mxGeometry relative="1" as="geometry">
            <mxPoint x="540" y="110" as="targetPoint" />
            <Array as="points">
              <mxPoint x="520" y="190" />
              <mxPoint x="520" y="110" />
            </Array>
          </mxGeometry>
        </mxCell>
        <mxCell id="j0zdqZ4gvTMgkpvPAREg-1" value="" style="rounded=0;orthogonalLoop=1;jettySize=auto;html=1;edgeStyle=orthogonalEdgeStyle;elbow=vertical;" edge="1" parent="qFUhUoFra0QCx2b-uVbG-1">
          <mxGeometry relative="1" as="geometry">
            <mxPoint x="470" y="190" as="sourcePoint" />
            <mxPoint x="540" y="268" as="targetPoint" />
            <Array as="points">
              <mxPoint x="520" y="190" />
              <mxPoint x="520" y="268" />
            </Array>
          </mxGeometry>
        </mxCell>
        <mxCell id="j0zdqZ4gvTMgkpvPAREg-2" value="" style="edgeStyle=orthogonalEdgeStyle;rounded=0;orthogonalLoop=1;jettySize=auto;html=1;" edge="1" parent="qFUhUoFra0QCx2b-uVbG-1" source="j0zdqZ4gvTMgkpvPAREg-3">
          <mxGeometry relative="1" as="geometry">
            <mxPoint x="540" y="190" as="targetPoint" />
          </mxGeometry>
        </mxCell>
        <mxCell id="j0zdqZ4gvTMgkpvPAREg-3" value="系统管理员" style="shape=umlActor;verticalLabelPosition=bottom;verticalAlign=top;html=1;" vertex="1" parent="qFUhUoFra0QCx2b-uVbG-1">
          <mxGeometry x="440" y="160" width="30" height="60" as="geometry" />
        </mxCell>
        <mxCell id="j0zdqZ4gvTMgkpvPAREg-4" value="" style="ellipse;whiteSpace=wrap;html=1;verticalAlign=top;" vertex="1" parent="qFUhUoFra0QCx2b-uVbG-1">
          <mxGeometry x="550" y="80" width="180" height="60" as="geometry" />
        </mxCell>
        <mxCell id="j0zdqZ4gvTMgkpvPAREg-5" value="系统首次运行初始化" style="text;html=1;align=center;verticalAlign=middle;resizable=0;points=[];autosize=1;strokeColor=none;fillColor=none;" vertex="1" parent="qFUhUoFra0QCx2b-uVbG-1">
          <mxGeometry x="580" y="100" width="120" height="20" as="geometry" />
        </mxCell>
        <mxCell id="j0zdqZ4gvTMgkpvPAREg-6" value="" style="edgeStyle=orthogonalEdgeStyle;rounded=0;orthogonalLoop=1;jettySize=auto;html=1;exitX=1;exitY=0.5;exitDx=0;exitDy=0;" edge="1" parent="qFUhUoFra0QCx2b-uVbG-1" source="j0zdqZ4gvTMgkpvPAREg-8" target="j0zdqZ4gvTMgkpvPAREg-12">
          <mxGeometry relative="1" as="geometry" />
        </mxCell>
        <mxCell id="j0zdqZ4gvTMgkpvPAREg-7" value="" style="edgeStyle=orthogonalEdgeStyle;rounded=0;orthogonalLoop=1;jettySize=auto;html=1;" edge="1" parent="qFUhUoFra0QCx2b-uVbG-1" source="j0zdqZ4gvTMgkpvPAREg-8" target="j0zdqZ4gvTMgkpvPAREg-14">
          <mxGeometry relative="1" as="geometry" />
        </mxCell>
        <mxCell id="j0zdqZ4gvTMgkpvPAREg-8" value="" style="ellipse;whiteSpace=wrap;html=1;verticalAlign=top;" vertex="1" parent="qFUhUoFra0QCx2b-uVbG-1">
          <mxGeometry x="550" y="160" width="180" height="60" as="geometry" />
        </mxCell>
        <mxCell id="j0zdqZ4gvTMgkpvPAREg-9" value="首次登录修改密码" style="text;html=1;align=center;verticalAlign=middle;resizable=0;points=[];autosize=1;strokeColor=none;fillColor=none;" vertex="1" parent="qFUhUoFra0QCx2b-uVbG-1">
          <mxGeometry x="585" y="180" width="110" height="20" as="geometry" />
        </mxCell>
        <mxCell id="j0zdqZ4gvTMgkpvPAREg-10" value="" style="ellipse;whiteSpace=wrap;html=1;verticalAlign=top;" vertex="1" parent="qFUhUoFra0QCx2b-uVbG-1">
          <mxGeometry x="550" y="240" width="180" height="60" as="geometry" />
        </mxCell>
        <mxCell id="j0zdqZ4gvTMgkpvPAREg-11" value="系统管理" style="text;html=1;align=center;verticalAlign=middle;resizable=0;points=[];autosize=1;strokeColor=none;fillColor=none;" vertex="1" parent="qFUhUoFra0QCx2b-uVbG-1">
          <mxGeometry x="610" y="260" width="60" height="20" as="geometry" />
        </mxCell>
        <mxCell id="j0zdqZ4gvTMgkpvPAREg-12" value="" style="ellipse;whiteSpace=wrap;html=1;verticalAlign=top;" vertex="1" parent="qFUhUoFra0QCx2b-uVbG-1">
          <mxGeometry x="800" y="120" width="180" height="60" as="geometry" />
        </mxCell>
        <mxCell id="j0zdqZ4gvTMgkpvPAREg-13" value="登录系统后台" style="text;html=1;align=center;verticalAlign=middle;resizable=0;points=[];autosize=1;strokeColor=none;fillColor=none;" vertex="1" parent="qFUhUoFra0QCx2b-uVbG-1">
          <mxGeometry x="845" y="140" width="90" height="20" as="geometry" />
        </mxCell>
        <mxCell id="j0zdqZ4gvTMgkpvPAREg-14" value="" style="ellipse;whiteSpace=wrap;html=1;verticalAlign=top;" vertex="1" parent="qFUhUoFra0QCx2b-uVbG-1">
          <mxGeometry x="800" y="190" width="180" height="60" as="geometry" />
        </mxCell>
        <mxCell id="j0zdqZ4gvTMgkpvPAREg-15" value="首次修改密码" style="text;html=1;align=center;verticalAlign=middle;resizable=0;points=[];autosize=1;strokeColor=none;fillColor=none;" vertex="1" parent="qFUhUoFra0QCx2b-uVbG-1">
          <mxGeometry x="845" y="210" width="90" height="20" as="geometry" />
        </mxCell>
      </root>
    </mxGraphModel>
  </diagram>
</mxfile>
